<?xml version="1.0" standalone="no"?><!DOCTYPE svg PUBLIC "-//W3C//DTD SVG 1.1//EN" "http://www.w3.org/Graphics/SVG/1.1/DTD/svg11.dtd"><svg t="1638347383895" class="icon" viewBox="0 0 1024 1024" version="1.1" xmlns="http://www.w3.org/2000/svg" p-id="13716" xmlns:xlink="http://www.w3.org/1999/xlink" width="64" height="64"><defs><style type="text/css"></style></defs><path d="M203.9 410.1H37.1C0 410.1 0 442.5 0 442.5l37.1 542.1c0 37.1 32.4 37.1 32.4 37.1h143.6c32.4 0 27.8-23.2 27.8-23.2V451.8c4.7-41.7-37-41.7-37-41.7zM949.9 410.1h-278C778.5 20.9 593.1 2.3 593.1 2.3c-78.8 0-60.2 60.2-64.9 69.5 0 190-208.5 338.2-208.5 338.2v537.5c0 55.6 74.1 74.1 106.6 74.1H848c37.1 0 74.1-101.9 74.1-101.9C1024 576.8 1024 474.9 1024 474.9c-4.6-69.5-74.1-64.8-74.1-64.8z" fill="#515151" p-id="13717" data-spm-anchor-id="a313x.7781069.0.i0" class="selected"></path></svg>