<?xml version="1.0" standalone="no"?><!DOCTYPE svg PUBLIC "-//W3C//DTD SVG 1.1//EN" "http://www.w3.org/Graphics/SVG/1.1/DTD/svg11.dtd"><svg t="1636797413885" class="icon" viewBox="0 0 1024 1024" version="1.1" xmlns="http://www.w3.org/2000/svg" p-id="3083" xmlns:xlink="http://www.w3.org/1999/xlink" width="64" height="64"><defs><style type="text/css"></style></defs><path d="M384 0a112 112 0 0 0-112 112v32h-32a112 112 0 0 0 0 224h256V112a112 112 0 0 0-112-112z" fill="#f05053" p-id="3084" data-spm-anchor-id="a313x.7781069.0.i6" class=""></path><path d="M640 32a112 112 0 0 1 112 112v32h32a112 112 0 0 1 0 224H528V144a112 112 0 0 1 112-112zM384 768a112 112 0 0 1-112-112v-32h-32a112 112 0 0 1 0-224h256v256a112 112 0 0 1-112 112zM640 768a112 112 0 0 0 112-112v-32h32a112 112 0 0 0 0-224H528v256a112 112 0 0 0 112 112z" fill="#02b340" p-id="3085" data-spm-anchor-id="a313x.7781069.0.i8" class=""></path></svg>