<?xml version="1.0" standalone="no"?><!DOCTYPE svg PUBLIC "-//W3C//DTD SVG 1.1//EN" "http://www.w3.org/Graphics/SVG/1.1/DTD/svg11.dtd"><svg t="1636797692253" class="icon" viewBox="0 0 1024 1024" version="1.1" xmlns="http://www.w3.org/2000/svg" p-id="6380" width="64" height="64" xmlns:xlink="http://www.w3.org/1999/xlink"><defs><style type="text/css"></style></defs><path d="M761.024 60.992c-99.2-9.056-263.104-27.168-365.952-24.064 0.032 0.128 0.128 0.256 0.384 0.608C176.544 45.152 15.488 134.624 15.488 252.928l0.384 549.728c8.288 118.848 181.92 207.264 410.528 207.264 164.096 0 299.2-45.568 365.824-115.2 37.696 0.288 73.76 3.456 107.008 8.864a90.56 90.56 0 0 0 105.024-88.832l4.256-629.6a103.456 103.456 0 0 0-84.352-102.432c-52.416-9.792-111.392-16.992-163.136-21.728zM426.4 112.416c191.04 0 333.696 73.312 333.696 138.816 0 65.472-142.656 138.72-333.696 138.72-191.008 0-333.728-73.248-333.728-138.72 0.032-65.504 142.752-138.816 333.728-138.816zM759.68 792.064c0 65.504-142.24 138.752-333.28 138.752-36 0-70.336-2.592-102.272-7.264l0.064-12.704c0.096-17.056-13.664-23.168-30.72-23.168h-0.16c-16.992 0-30.752 6.048-30.784 23.04v0.64c-103.168-26.176-169.856-74.56-169.856-119.296 0-22.336-4.864-413.504-4.864-413.504 49.216 36.064 118.528 63.296 201.152 77.536-14.016 2.176-24.544 11.52-24.608 26.4l-0.448 100.64c-0.128 17.024 13.664 26.048 30.688 26.048h0.16c16.96 0 30.752-8 30.848-24.992l0.416-99.328a28.352 28.352 0 0 0-15.008-25.408 808.32 808.32 0 0 0 113.28 7.776c142.208 0 267.2-34.272 336.448-88.672 0 0-1.056 390.176-1.056 413.504z m168.64-19.072a51.104 51.104 0 0 1-56.32 50.656c-12.384-1.28-24.96-2.272-37.76-2.944 1.28-5.952 1.824-567.744 1.824-567.744 0-42.72-21.024-81.728-58.176-114.4 36.576 2.88 74.56 6.88 109.952 12 25.28 3.68 43.872 25.344 43.712 50.912l-3.232 571.52z" fill="" p-id="6381"></path><path d="M296.896 251.232a129.536 61.728 0 1 0 259.072 0 129.536 61.728 0 1 0-259.072 0Z" fill="" p-id="6382"></path><path d="M294.464 671.808h-0.16c-16.992 0-30.752 8.16-30.848 25.152l-0.448 99.072c-0.064 17.056 13.632 29.056 30.688 29.056h0.192c16.96 0 30.784-9.504 30.816-26.528l0.448-100.736c0.064-17.024-13.696-26.016-30.688-26.016z" fill="" p-id="6383"></path></svg>