<?xml version="1.0" standalone="no"?><!DOCTYPE svg PUBLIC "-//W3C//DTD SVG 1.1//EN" "http://www.w3.org/Graphics/SVG/1.1/DTD/svg11.dtd"><svg t="1638172445966" class="icon" viewBox="0 0 1024 1024" version="1.1" xmlns="http://www.w3.org/2000/svg" p-id="10349" xmlns:xlink="http://www.w3.org/1999/xlink" width="64" height="64"><defs><style type="text/css"></style></defs><path d="M888.490667 63.488a72.106667 72.106667 0 0 1 72.106666 72.021333v753.066667c0 39.808-32.213333 72.021333-71.978666 72.021333H135.509333a71.936 71.936 0 0 1-72.021333-71.978666V135.509333c0-39.808 32.213333-72.021333 72.021333-72.021333h752.981334z m-129.28 525.098667l-221.013334-235.818667A35.754667 35.754667 0 0 0 512 341.461333a35.84 35.84 0 0 0-26.282667 11.434667l-221.013333 235.776a36.010667 36.010667 0 0 0 52.48 49.322667L512 430.208l194.688 207.658667a36.010667 36.010667 0 0 0 52.48-49.28z" fill="#2c2c2c" opacity=".65" p-id="10350"></path></svg>